<svg xmlns="http://www.w3.org/2000/svg" xmlns:xlink="http://www.w3.org/1999/xlink" width="500" zoomAndPan="magnify" viewBox="0 0 375 374.999991" height="500" preserveAspectRatio="xMidYMid meet" version="1.0"><defs><clipPath id="49f6057d65"><path d="M 60.097656 16 L 315.097656 16 L 315.097656 337.734375 L 60.097656 337.734375 Z M 60.097656 16 " clip-rule="nonzero"/></clipPath></defs><path fill="#f683ba" d="M 280.738281 19.214844 L 94.464844 19.214844 C 77.304688 19.214844 63.335938 33.171875 63.335938 50.332031 L 63.335938 303.382812 C 63.335938 320.542969 77.304688 334.503906 94.464844 334.503906 L 280.738281 334.503906 C 297.898438 334.503906 311.859375 320.542969 311.859375 303.382812 L 311.859375 50.332031 C 311.859375 33.171875 297.898438 19.214844 280.738281 19.214844 " fill-opacity="1" fill-rule="nonzero"/><g clip-path="url(#49f6057d65)"><path fill="#0c4b6b" d="M 280.738281 19.214844 L 280.738281 16 L 94.464844 16 C 85 16 76.398438 19.855469 70.191406 26.066406 C 63.980469 32.269531 60.121094 40.875 60.121094 50.332031 L 60.121094 303.382812 C 60.121094 312.847656 63.980469 321.445312 70.191406 327.652344 C 76.398438 333.863281 85 337.722656 94.464844 337.71875 L 280.738281 337.71875 C 290.199219 337.722656 298.796875 333.863281 305.007812 327.652344 C 311.214844 321.445312 315.074219 312.847656 315.074219 303.382812 L 315.074219 50.332031 C 315.074219 40.875 311.214844 32.269531 305.007812 26.066406 C 298.796875 19.855469 290.199219 16 280.738281 16 L 280.738281 22.429688 C 288.433594 22.429688 295.398438 25.554688 300.460938 30.609375 C 305.519531 35.675781 308.644531 42.632812 308.644531 50.332031 L 308.644531 303.382812 C 308.644531 311.082031 305.519531 318.039062 300.460938 323.105469 C 295.398438 328.167969 288.433594 331.289062 280.738281 331.289062 L 94.464844 331.289062 C 86.761719 331.289062 79.804688 328.167969 74.742188 323.105469 C 69.675781 318.039062 66.558594 311.082031 66.550781 303.382812 L 66.550781 50.332031 C 66.558594 42.632812 69.675781 35.675781 74.742188 30.609375 C 79.804688 25.554688 86.761719 22.429688 94.464844 22.429688 L 280.738281 22.429688 L 280.738281 19.214844 " fill-opacity="1" fill-rule="nonzero"/></g><path fill="#ffffff" d="M 261.933594 56.863281 L 113.261719 56.863281 C 102 56.863281 92.839844 66.027344 92.839844 77.289062 L 92.839844 104.367188 C 92.839844 115.625 102 124.789062 113.261719 124.789062 L 261.933594 124.789062 C 273.199219 124.789062 282.355469 115.625 282.355469 104.367188 L 282.355469 77.289062 C 282.355469 66.027344 273.199219 56.863281 261.933594 56.863281 " fill-opacity="1" fill-rule="nonzero"/><path fill="#0c4b6b" d="M 261.933594 56.863281 L 261.933594 53.648438 L 113.261719 53.648438 C 106.75 53.648438 100.824219 56.304688 96.554688 60.582031 C 92.285156 64.851562 89.621094 70.777344 89.625 77.289062 L 89.625 104.367188 C 89.621094 110.878906 92.285156 116.804688 96.554688 121.078125 C 100.824219 125.351562 106.75 128.007812 113.261719 128.003906 L 261.933594 128.003906 C 268.445312 128.007812 274.375 125.351562 278.644531 121.078125 C 282.917969 116.804688 285.574219 110.878906 285.570312 104.367188 L 285.570312 77.289062 C 285.574219 70.777344 282.917969 64.851562 278.644531 60.582031 C 274.375 56.304688 268.445312 53.648438 261.933594 53.648438 L 261.933594 60.078125 C 266.683594 60.082031 270.96875 62.003906 274.097656 65.125 C 277.21875 68.257812 279.140625 72.539062 279.140625 77.289062 L 279.140625 104.367188 C 279.140625 109.117188 277.21875 113.402344 274.097656 116.53125 C 270.96875 119.648438 266.683594 121.574219 261.933594 121.574219 L 113.261719 121.574219 C 108.515625 121.574219 104.230469 119.648438 101.101562 116.53125 C 97.980469 113.402344 96.054688 109.117188 96.054688 104.367188 L 96.054688 77.289062 C 96.054688 72.539062 97.980469 68.257812 101.101562 65.125 C 104.230469 62.003906 108.515625 60.082031 113.261719 60.078125 L 261.933594 60.078125 L 261.933594 56.863281 " fill-opacity="1" fill-rule="nonzero"/><path fill="#84c1eb" d="M 119.054688 191.71875 L 95.421875 191.71875 C 92.097656 191.71875 89.375 188.996094 89.375 185.671875 L 89.375 164.335938 C 89.375 161.011719 92.097656 158.292969 95.421875 158.292969 L 119.054688 158.292969 C 122.375 158.292969 125.097656 161.011719 125.097656 164.335938 L 125.097656 185.671875 C 125.097656 188.996094 122.375 191.71875 119.054688 191.71875 " fill-opacity="1" fill-rule="nonzero"/><path fill="#0c4b6b" d="M 119.054688 191.71875 L 119.054688 188.503906 L 95.421875 188.503906 C 94.644531 188.503906 93.953125 188.191406 93.421875 187.671875 C 92.902344 187.144531 92.589844 186.449219 92.589844 185.671875 L 92.589844 164.335938 C 92.589844 163.5625 92.902344 162.871094 93.421875 162.34375 C 93.953125 161.820312 94.644531 161.507812 95.421875 161.507812 L 119.054688 161.507812 C 119.828125 161.507812 120.519531 161.820312 121.046875 162.34375 C 121.570312 162.871094 121.882812 163.5625 121.882812 164.335938 L 121.882812 185.671875 C 121.882812 186.449219 121.570312 187.144531 121.046875 187.671875 C 120.519531 188.191406 119.828125 188.503906 119.054688 188.503906 L 119.054688 194.933594 C 121.601562 194.933594 123.933594 193.882812 125.59375 192.214844 C 127.261719 190.550781 128.3125 188.222656 128.3125 185.671875 L 128.3125 164.335938 C 128.3125 161.789062 127.261719 159.460938 125.59375 157.796875 C 123.933594 156.128906 121.601562 155.074219 119.054688 155.078125 L 95.421875 155.078125 C 92.871094 155.074219 90.539062 156.128906 88.878906 157.796875 C 87.210938 159.460938 86.160156 161.789062 86.160156 164.335938 L 86.160156 185.671875 C 86.160156 188.222656 87.210938 190.550781 88.878906 192.214844 C 90.539062 193.882812 92.871094 194.933594 95.421875 194.933594 L 119.054688 194.933594 L 119.054688 191.71875 " fill-opacity="1" fill-rule="nonzero"/><path fill="#84c1eb" d="M 173.800781 191.71875 L 150.171875 191.71875 C 146.851562 191.71875 144.125 188.996094 144.125 185.671875 L 144.125 164.335938 C 144.125 161.011719 146.851562 158.292969 150.171875 158.292969 L 173.800781 158.292969 C 177.125 158.292969 179.851562 161.011719 179.851562 164.335938 L 179.851562 185.671875 C 179.851562 188.996094 177.125 191.71875 173.800781 191.71875 " fill-opacity="1" fill-rule="nonzero"/><path fill="#0c4b6b" d="M 173.800781 191.71875 L 173.800781 188.503906 L 150.171875 188.503906 C 149.398438 188.503906 148.703125 188.191406 148.175781 187.671875 C 147.652344 187.144531 147.34375 186.449219 147.34375 185.671875 L 147.34375 164.335938 C 147.34375 163.5625 147.652344 162.871094 148.175781 162.34375 C 148.703125 161.820312 149.398438 161.507812 150.171875 161.507812 L 173.800781 161.507812 C 174.578125 161.507812 175.273438 161.820312 175.800781 162.34375 C 176.324219 162.871094 176.632812 163.5625 176.632812 164.335938 L 176.632812 185.671875 C 176.632812 186.449219 176.324219 187.144531 175.800781 187.671875 C 175.273438 188.191406 174.578125 188.503906 173.800781 188.503906 L 173.800781 194.933594 C 176.351562 194.933594 178.683594 193.882812 180.347656 192.214844 C 182.015625 190.550781 183.066406 188.222656 183.066406 185.671875 L 183.066406 164.335938 C 183.066406 161.789062 182.015625 159.460938 180.347656 157.796875 C 178.679688 156.128906 176.351562 155.074219 173.800781 155.078125 L 150.171875 155.078125 C 147.625 155.074219 145.292969 156.128906 143.628906 157.796875 C 141.960938 159.460938 140.910156 161.789062 140.910156 164.335938 L 140.910156 185.671875 C 140.910156 188.222656 141.960938 190.550781 143.628906 192.214844 C 145.292969 193.882812 147.625 194.933594 150.171875 194.933594 L 173.800781 194.933594 L 173.800781 191.71875 " fill-opacity="1" fill-rule="nonzero"/><path fill="#84c1eb" d="M 229.132812 191.71875 L 205.5 191.71875 C 202.175781 191.71875 199.457031 188.996094 199.457031 185.671875 L 199.457031 164.335938 C 199.457031 161.011719 202.175781 158.292969 205.5 158.292969 L 229.132812 158.292969 C 232.457031 158.292969 235.175781 161.011719 235.175781 164.335938 L 235.175781 185.671875 C 235.175781 188.996094 232.457031 191.71875 229.132812 191.71875 " fill-opacity="1" fill-rule="nonzero"/><path fill="#0c4b6b" d="M 229.132812 191.71875 L 229.132812 188.503906 L 205.5 188.503906 C 204.726562 188.503906 204.03125 188.191406 203.503906 187.671875 C 202.984375 187.144531 202.671875 186.449219 202.671875 185.671875 L 202.671875 164.335938 C 202.671875 163.5625 202.984375 162.871094 203.503906 162.34375 C 204.03125 161.820312 204.726562 161.507812 205.5 161.507812 L 229.132812 161.507812 C 229.90625 161.507812 230.597656 161.820312 231.125 162.34375 C 231.652344 162.871094 231.960938 163.5625 231.960938 164.335938 L 231.960938 185.671875 C 231.960938 186.449219 231.652344 187.144531 231.125 187.671875 C 230.597656 188.191406 229.90625 188.503906 229.132812 188.503906 L 229.132812 194.933594 C 231.679688 194.933594 234.007812 193.882812 235.671875 192.214844 C 237.34375 190.550781 238.394531 188.222656 238.390625 185.671875 L 238.390625 164.335938 C 238.394531 161.789062 237.34375 159.460938 235.671875 157.796875 C 234.007812 156.128906 231.679688 155.074219 229.132812 155.078125 L 205.5 155.078125 C 202.953125 155.074219 200.621094 156.128906 198.960938 157.796875 C 197.292969 159.460938 196.242188 161.789062 196.242188 164.335938 L 196.242188 185.671875 C 196.242188 188.222656 197.292969 190.550781 198.960938 192.214844 C 200.621094 193.882812 202.953125 194.933594 205.5 194.933594 L 229.132812 194.933594 L 229.132812 191.71875 " fill-opacity="1" fill-rule="nonzero"/><path fill="#84c1eb" d="M 118.761719 241.390625 L 95.132812 241.390625 C 91.804688 241.390625 89.089844 238.667969 89.089844 235.34375 L 89.089844 214.007812 C 89.089844 210.683594 91.804688 207.964844 95.132812 207.964844 L 118.761719 207.964844 C 122.089844 207.964844 124.8125 210.683594 124.8125 214.007812 L 124.8125 235.34375 C 124.8125 238.667969 122.089844 241.390625 118.761719 241.390625 " fill-opacity="1" fill-rule="nonzero"/><path fill="#0c4b6b" d="M 118.761719 241.390625 L 118.761719 238.175781 L 95.132812 238.175781 C 94.359375 238.175781 93.664062 237.863281 93.136719 237.339844 C 92.613281 236.8125 92.304688 236.121094 92.304688 235.34375 L 92.304688 214.007812 C 92.304688 213.234375 92.613281 212.539062 93.136719 212.011719 C 93.664062 211.492188 94.359375 211.179688 95.132812 211.179688 L 118.761719 211.179688 C 119.542969 211.179688 120.234375 211.492188 120.761719 212.011719 C 121.285156 212.539062 121.589844 213.234375 121.597656 214.007812 L 121.597656 235.34375 C 121.589844 236.121094 121.285156 236.8125 120.761719 237.339844 C 120.234375 237.863281 119.542969 238.175781 118.761719 238.175781 L 118.761719 244.605469 C 121.316406 244.605469 123.640625 243.554688 125.304688 241.886719 C 126.976562 240.21875 128.027344 237.894531 128.027344 235.34375 L 128.027344 214.007812 C 128.027344 211.460938 126.976562 209.128906 125.304688 207.46875 C 123.640625 205.800781 121.316406 204.746094 118.761719 204.75 L 95.132812 204.75 C 92.585938 204.746094 90.253906 205.800781 88.589844 207.46875 C 86.921875 209.128906 85.875 211.460938 85.875 214.007812 L 85.875 235.34375 C 85.875 237.894531 86.921875 240.21875 88.589844 241.886719 C 90.253906 243.554688 92.585938 244.605469 95.132812 244.605469 L 118.761719 244.605469 L 118.761719 241.390625 " fill-opacity="1" fill-rule="nonzero"/><path fill="#84c1eb" d="M 173.515625 241.390625 L 149.882812 241.390625 C 146.558594 241.390625 143.839844 238.667969 143.839844 235.34375 L 143.839844 214.007812 C 143.839844 210.683594 146.558594 207.964844 149.882812 207.964844 L 173.515625 207.964844 C 176.839844 207.964844 179.558594 210.683594 179.558594 214.007812 L 179.558594 235.34375 C 179.558594 238.667969 176.839844 241.390625 173.515625 241.390625 " fill-opacity="1" fill-rule="nonzero"/><path fill="#0c4b6b" d="M 173.515625 241.390625 L 173.515625 238.175781 L 149.882812 238.175781 C 149.109375 238.175781 148.417969 237.863281 147.890625 237.339844 C 147.367188 236.8125 147.054688 236.121094 147.054688 235.34375 L 147.054688 214.007812 C 147.054688 213.234375 147.367188 212.539062 147.890625 212.011719 C 148.417969 211.492188 149.109375 211.179688 149.882812 211.179688 L 173.515625 211.179688 C 174.292969 211.179688 174.980469 211.492188 175.507812 212.011719 C 176.03125 212.539062 176.34375 213.234375 176.34375 214.007812 L 176.34375 235.34375 C 176.34375 236.121094 176.03125 236.8125 175.507812 237.339844 C 174.980469 237.863281 174.292969 238.175781 173.515625 238.175781 L 173.515625 244.605469 C 176.0625 244.605469 178.394531 243.554688 180.054688 241.886719 C 181.726562 240.21875 182.777344 237.894531 182.773438 235.34375 L 182.773438 214.007812 C 182.777344 211.460938 181.726562 209.128906 180.054688 207.46875 C 178.394531 205.800781 176.0625 204.746094 173.515625 204.75 L 149.882812 204.75 C 147.335938 204.746094 145.007812 205.800781 143.34375 207.46875 C 141.675781 209.128906 140.625 211.460938 140.625 214.007812 L 140.625 235.34375 C 140.625 237.894531 141.675781 240.21875 143.34375 241.886719 C 145.007812 243.554688 147.335938 244.605469 149.882812 244.605469 L 173.515625 244.605469 L 173.515625 241.390625 " fill-opacity="1" fill-rule="nonzero"/><path fill="#84c1eb" d="M 228.84375 241.390625 L 205.214844 241.390625 C 201.886719 241.390625 199.164062 238.667969 199.164062 235.34375 L 199.164062 214.007812 C 199.164062 210.683594 201.886719 207.964844 205.214844 207.964844 L 228.84375 207.964844 C 232.171875 207.964844 234.886719 210.683594 234.886719 214.007812 L 234.886719 235.34375 C 234.886719 238.667969 232.171875 241.390625 228.84375 241.390625 " fill-opacity="1" fill-rule="nonzero"/><path fill="#0c4b6b" d="M 228.84375 241.390625 L 228.84375 238.175781 L 205.214844 238.175781 C 204.433594 238.175781 203.742188 237.863281 203.214844 237.339844 C 202.691406 236.8125 202.386719 236.121094 202.378906 235.34375 L 202.378906 214.007812 C 202.386719 213.234375 202.691406 212.539062 203.214844 212.011719 C 203.742188 211.492188 204.433594 211.179688 205.214844 211.179688 L 228.84375 211.179688 C 229.617188 211.179688 230.3125 211.492188 230.839844 212.011719 C 231.363281 212.539062 231.671875 213.234375 231.671875 214.007812 L 231.671875 235.34375 C 231.671875 236.121094 231.363281 236.8125 230.839844 237.339844 C 230.3125 237.863281 229.617188 238.175781 228.84375 238.175781 L 228.84375 244.605469 C 231.390625 244.605469 233.722656 243.554688 235.386719 241.886719 C 237.054688 240.21875 238.101562 237.894531 238.101562 235.34375 L 238.101562 214.007812 C 238.101562 211.460938 237.054688 209.128906 235.386719 207.46875 C 233.722656 205.800781 231.390625 204.746094 228.84375 204.75 L 205.214844 204.75 C 202.660156 204.746094 200.335938 205.800781 198.667969 207.46875 C 197 209.128906 195.949219 211.460938 195.949219 214.007812 L 195.949219 235.34375 C 195.949219 237.894531 197 240.21875 198.667969 241.886719 C 200.335938 243.554688 202.660156 244.605469 205.214844 244.605469 L 228.84375 244.605469 L 228.84375 241.390625 " fill-opacity="1" fill-rule="nonzero"/><path fill="#84c1eb" d="M 118.476562 291.0625 L 94.84375 291.0625 C 91.519531 291.0625 88.796875 288.339844 88.796875 285.011719 L 88.796875 263.679688 C 88.796875 260.351562 91.519531 257.636719 94.84375 257.636719 L 118.476562 257.636719 C 121.800781 257.636719 124.519531 260.351562 124.519531 263.679688 L 124.519531 285.011719 C 124.519531 288.339844 121.800781 291.0625 118.476562 291.0625 " fill-opacity="1" fill-rule="nonzero"/><path fill="#0c4b6b" d="M 118.476562 291.0625 L 118.476562 287.84375 L 94.84375 287.84375 C 94.066406 287.84375 93.378906 287.535156 92.851562 287.011719 C 92.324219 286.484375 92.015625 285.792969 92.011719 285.011719 L 92.011719 263.679688 C 92.015625 262.90625 92.324219 262.210938 92.851562 261.683594 C 93.378906 261.160156 94.066406 260.851562 94.84375 260.851562 L 118.476562 260.851562 C 119.25 260.851562 119.941406 261.160156 120.472656 261.683594 C 120.992188 262.210938 121.304688 262.90625 121.304688 263.679688 L 121.304688 285.011719 C 121.304688 285.792969 120.992188 286.484375 120.472656 287.011719 C 119.941406 287.535156 119.25 287.84375 118.476562 287.84375 L 118.476562 294.277344 C 121.023438 294.277344 123.355469 293.226562 125.015625 291.558594 C 126.683594 289.894531 127.734375 287.5625 127.734375 285.011719 L 127.734375 263.679688 C 127.734375 261.132812 126.683594 258.800781 125.015625 257.136719 C 123.355469 255.46875 121.023438 254.421875 118.476562 254.421875 L 94.84375 254.421875 C 92.292969 254.421875 89.96875 255.46875 88.300781 257.136719 C 86.632812 258.800781 85.582031 261.132812 85.582031 263.679688 L 85.582031 285.011719 C 85.582031 287.5625 86.632812 289.894531 88.300781 291.558594 C 89.96875 293.226562 92.292969 294.277344 94.84375 294.277344 L 118.476562 294.277344 L 118.476562 291.0625 " fill-opacity="1" fill-rule="nonzero"/><path fill="#84c1eb" d="M 173.230469 291.0625 L 149.597656 291.0625 C 146.273438 291.0625 143.550781 288.339844 143.550781 285.011719 L 143.550781 263.679688 C 143.550781 260.351562 146.273438 257.636719 149.597656 257.636719 L 173.230469 257.636719 C 176.554688 257.636719 179.273438 260.351562 179.273438 263.679688 L 179.273438 285.011719 C 179.273438 288.339844 176.554688 291.0625 173.230469 291.0625 " fill-opacity="1" fill-rule="nonzero"/><path fill="#0c4b6b" d="M 173.230469 291.0625 L 173.230469 287.84375 L 149.597656 287.84375 C 148.820312 287.84375 148.125 287.535156 147.597656 287.011719 C 147.074219 286.484375 146.769531 285.792969 146.765625 285.011719 L 146.765625 263.679688 C 146.769531 262.90625 147.074219 262.210938 147.597656 261.683594 C 148.125 261.160156 148.820312 260.851562 149.597656 260.851562 L 173.230469 260.851562 C 174.003906 260.851562 174.695312 261.160156 175.222656 261.683594 C 175.746094 262.210938 176.058594 262.90625 176.058594 263.679688 L 176.058594 285.011719 C 176.058594 285.792969 175.746094 286.484375 175.222656 287.011719 C 174.695312 287.535156 174.003906 287.84375 173.230469 287.84375 L 173.230469 294.277344 C 175.777344 294.277344 178.105469 293.226562 179.769531 291.558594 C 181.4375 289.894531 182.488281 287.5625 182.488281 285.011719 L 182.488281 263.679688 C 182.488281 261.132812 181.4375 258.800781 179.769531 257.136719 C 178.105469 255.46875 175.777344 254.421875 173.230469 254.421875 L 149.597656 254.421875 C 147.046875 254.421875 144.71875 255.46875 143.050781 257.136719 C 141.382812 258.800781 140.335938 261.132812 140.335938 263.679688 L 140.335938 285.011719 C 140.335938 287.5625 141.382812 289.894531 143.050781 291.558594 C 144.71875 293.226562 147.046875 294.277344 149.597656 294.277344 L 173.230469 294.277344 L 173.230469 291.0625 " fill-opacity="1" fill-rule="nonzero"/><path fill="#84c1eb" d="M 228.554688 291.0625 L 204.921875 291.0625 C 201.601562 291.0625 198.878906 288.339844 198.878906 285.011719 L 198.878906 263.679688 C 198.878906 260.351562 201.601562 257.636719 204.921875 257.636719 L 228.554688 257.636719 C 231.878906 257.636719 234.601562 260.351562 234.601562 263.679688 L 234.601562 285.011719 C 234.601562 288.339844 231.878906 291.0625 228.554688 291.0625 " fill-opacity="1" fill-rule="nonzero"/><path fill="#0c4b6b" d="M 228.554688 291.0625 L 228.554688 287.84375 L 204.921875 287.84375 C 204.148438 287.84375 203.457031 287.535156 202.929688 287.011719 C 202.40625 286.484375 202.09375 285.792969 202.09375 285.011719 L 202.09375 263.679688 C 202.09375 262.90625 202.40625 262.210938 202.929688 261.683594 C 203.457031 261.160156 204.148438 260.851562 204.921875 260.851562 L 228.554688 260.851562 C 229.332031 260.851562 230.023438 261.160156 230.550781 261.683594 C 231.074219 262.210938 231.386719 262.90625 231.386719 263.679688 L 231.386719 285.011719 C 231.386719 285.792969 231.074219 286.484375 230.550781 287.011719 C 230.023438 287.535156 229.332031 287.84375 228.554688 287.84375 L 228.554688 294.277344 C 231.105469 294.277344 233.429688 293.226562 235.097656 291.558594 C 236.765625 289.894531 237.816406 287.5625 237.816406 285.011719 L 237.816406 263.679688 C 237.816406 261.132812 236.765625 258.800781 235.097656 257.136719 C 233.429688 255.46875 231.105469 254.421875 228.554688 254.421875 L 204.921875 254.421875 C 202.375 254.421875 200.042969 255.46875 198.382812 257.136719 C 196.714844 258.800781 195.664062 261.132812 195.664062 263.679688 L 195.664062 285.011719 C 195.664062 287.5625 196.714844 289.894531 198.382812 291.558594 C 200.042969 293.226562 202.375 294.277344 204.921875 294.277344 L 228.554688 294.277344 L 228.554688 291.0625 " fill-opacity="1" fill-rule="nonzero"/><path fill="#84c1eb" d="M 280.996094 291.0625 L 257.363281 291.0625 C 254.039062 291.0625 251.320312 288.339844 251.320312 285.011719 L 251.320312 263.679688 C 251.320312 260.351562 254.039062 257.636719 257.363281 257.636719 L 280.996094 257.636719 C 284.320312 257.636719 287.042969 260.351562 287.042969 263.679688 L 287.042969 285.011719 C 287.042969 288.339844 284.320312 291.0625 280.996094 291.0625 " fill-opacity="1" fill-rule="nonzero"/><path fill="#0c4b6b" d="M 280.996094 291.0625 L 280.996094 287.84375 L 257.363281 287.84375 C 256.589844 287.84375 255.898438 287.535156 255.371094 287.011719 C 254.847656 286.484375 254.535156 285.792969 254.535156 285.011719 L 254.535156 263.679688 C 254.535156 262.90625 254.847656 262.210938 255.371094 261.683594 C 255.898438 261.160156 256.589844 260.851562 257.363281 260.851562 L 280.996094 260.851562 C 281.773438 260.851562 282.460938 261.160156 282.988281 261.683594 C 283.515625 262.210938 283.824219 262.90625 283.828125 263.679688 L 283.828125 285.011719 C 283.824219 285.792969 283.515625 286.484375 282.988281 287.011719 C 282.460938 287.535156 281.773438 287.84375 280.996094 287.84375 L 280.996094 294.277344 C 283.542969 294.277344 285.871094 293.226562 287.539062 291.558594 C 289.207031 289.894531 290.257812 287.5625 290.257812 285.011719 L 290.257812 263.679688 C 290.257812 261.132812 289.207031 258.800781 287.539062 257.136719 C 285.871094 255.46875 283.542969 254.421875 280.996094 254.421875 L 257.363281 254.421875 C 254.816406 254.421875 252.484375 255.46875 250.824219 257.136719 C 249.15625 258.800781 248.105469 261.132812 248.105469 263.679688 L 248.105469 285.011719 C 248.105469 287.5625 249.15625 289.894531 250.824219 291.558594 C 252.484375 293.226562 254.816406 294.277344 257.363281 294.277344 L 280.996094 294.277344 L 280.996094 291.0625 " fill-opacity="1" fill-rule="nonzero"/><path fill="#84c1eb" d="M 283.882812 241.390625 L 260.253906 241.390625 C 256.925781 241.390625 254.207031 238.667969 254.207031 235.34375 L 254.207031 164.335938 C 254.207031 161.011719 256.925781 158.292969 260.253906 158.292969 L 283.882812 158.292969 C 287.207031 158.292969 289.925781 161.011719 289.925781 164.335938 L 289.925781 235.34375 C 289.925781 238.667969 287.207031 241.390625 283.882812 241.390625 " fill-opacity="1" fill-rule="nonzero"/><path fill="#0c4b6b" d="M 283.882812 241.390625 L 283.882812 238.175781 L 260.253906 238.175781 C 259.480469 238.175781 258.785156 237.863281 258.257812 237.339844 C 257.734375 236.8125 257.425781 236.121094 257.425781 235.34375 L 257.425781 164.335938 C 257.425781 163.5625 257.734375 162.871094 258.257812 162.34375 C 258.785156 161.820312 259.480469 161.507812 260.253906 161.507812 L 283.882812 161.507812 C 284.65625 161.507812 285.351562 161.820312 285.878906 162.34375 C 286.398438 162.871094 286.710938 163.5625 286.710938 164.335938 L 286.710938 235.34375 C 286.710938 236.121094 286.398438 236.8125 285.878906 237.339844 C 285.351562 237.863281 284.65625 238.175781 283.882812 238.175781 L 283.882812 244.605469 C 286.429688 244.605469 288.761719 243.554688 290.425781 241.886719 C 292.089844 240.21875 293.148438 237.894531 293.140625 235.34375 L 293.140625 164.335938 C 293.148438 161.789062 292.089844 159.460938 290.425781 157.796875 C 288.761719 156.128906 286.429688 155.074219 283.882812 155.078125 L 260.253906 155.078125 C 257.707031 155.074219 255.375 156.128906 253.710938 157.796875 C 252.042969 159.460938 250.988281 161.789062 250.992188 164.335938 L 250.992188 235.34375 C 250.988281 237.894531 252.042969 240.21875 253.710938 241.886719 C 255.375 243.554688 257.707031 244.605469 260.253906 244.605469 L 283.882812 244.605469 L 283.882812 241.390625 " fill-opacity="1" fill-rule="nonzero"/><path fill="#ffffff" d="M 297.609375 74.523438 C 293.210938 74.523438 289.644531 70.964844 289.644531 66.566406 L 289.644531 50.980469 C 289.644531 48.25 289.039062 46.292969 287.839844 45.167969 C 285.84375 43.300781 282.246094 43.332031 282.207031 43.335938 C 282.035156 43.351562 281.859375 43.355469 281.6875 43.355469 L 171.597656 43.355469 C 167.199219 43.355469 163.636719 39.792969 163.636719 35.398438 C 163.636719 31.003906 167.199219 27.4375 171.597656 27.4375 L 281.507812 27.4375 C 283.53125 27.355469 292.183594 27.425781 298.722656 33.554688 C 301.84375 36.476562 305.566406 41.878906 305.566406 50.980469 L 305.566406 66.566406 C 305.566406 70.964844 302 74.523438 297.609375 74.523438 " fill-opacity="1" fill-rule="nonzero"/><path fill="#0c4b6b" d="M 102.808594 317.382812 L 273.199219 317.382812 C 274.976562 317.382812 276.414062 315.941406 276.414062 314.167969 C 276.414062 312.390625 274.976562 310.953125 273.199219 310.953125 L 102.808594 310.953125 C 101.03125 310.953125 99.59375 312.390625 99.59375 314.167969 C 99.59375 315.941406 101.03125 317.382812 102.808594 317.382812 " fill-opacity="1" fill-rule="nonzero"/></svg>